<svg xmlns="http://www.w3.org/2000/svg">
  <symbol id="icon-git">
    <path d="M23.546 10.93L13.067.452c-.604-.603-1.582-.603-2.188 0L8.708 2.627l2.76 2.76c.645-.215 1.379-.07 1.889.441.516.515.658 1.258.438 1.9l2.658 2.66c.645-.223 1.387-.078 1.9.435.721.72.721 1.884 0 2.604-.719.719-1.881.719-2.6 0-.539-.541-.674-1.337-.404-1.996L12.86 8.955v6.525c.176.086.342.203.488.348.713.721.713 1.883 0 2.6-.719.721-1.889.721-2.609 0-.719-.719-.719-1.879 0-2.598.182-.18.387-.316.605-.406V8.835c-.217-.091-.424-.222-.6-.401-.545-.545-.676-1.342-.396-2.009L7.636 3.7.45 10.881c-.6.605-.6 1.584 0 2.189l10.48 10.477c.604.604 1.582.604 2.186 0l10.43-10.43c.605-.603.605-1.582 0-2.187"/>
  </symbol>

  <symbol id="icon-html">
    <path d="M1.5 0h21l-1.91 21.563L11.977 24l-8.564-2.438L1.5 0zm7.031 9.75l-.232-2.718 10.059.003.23-2.622L5.412 4.41l.698 8.01h9.126l-.326 3.426-2.91.804-2.955-.81-.188-2.11H6.248l.33 4.171L12 19.351l5.379-1.443.744-8.157H8.531z"/>
  </symbol>

  <symbol id="icon-css">
    <path d="M1.5 0h21l-1.91 21.563L11.977 24l-8.565-2.438L1.5 0zm17.09 4.413L5.41 4.41l.213 2.622 10.125.002-.255 2.716h-6.64l.24 2.573h6.182l-.366 3.523-2.91.804-2.956-.81-.188-2.11h-2.61l.29 3.855L12 19.288l5.373-1.53L18.59 4.414z"/>
  </symbol>

  <symbol id="icon-bootstrap">
    <path d="M11.77 11.24H9.956V8.202h2.152c1.17 0 1.834.522 1.834 1.466 0 1.008-.773 1.572-2.174 1.572zm.324 1.206H9.957v3.348h2.231c1.459 0 2.232-.585 2.232-1.685s-.795-1.663-2.326-1.663zM24 11.39v1.218c-1.128.108-1.817.944-2.226 2.268-.407 1.319-.463 2.937-.42 4.186.045 1.3-.968 2.5-2.337 2.5H4.985c-1.37 0-2.383-1.2-2.337-2.5.043-1.249-.013-2.867-.42-4.186-.41-1.324-1.1-2.16-2.228-2.268V11.39c1.128-.108 1.819-.944 2.227-2.268.408-1.319.464-2.937.42-4.186-.045-1.3.968-2.5 2.338-2.5h14.032c1.37 0 2.382 1.2 2.337 2.5-.043 1.249.013 2.867.42 4.186.409 1.324 1.098 2.16 2.226 2.268zm-7.927 2.817c0-1.354-.953-2.333-2.368-2.488v-.057c1.04-.169 1.856-1.135 1.856-2.213 0-1.537-1.213-2.538-3.062-2.538h-4.16v10.172h4.181c2.218 0 3.553-1.086 3.553-2.876z"/>
  </symbol>

  <symbol id="icon-javascript">
    <path d="M0 0h24v24H0V0zm22.034 18.276c-.175-1.095-.888-2.015-3.003-2.873-.736-.345-1.554-.585-1.797-1.14-.091-.33-.105-.51-.046-.705.15-.646.915-.84 1.515-.66.39.12.75.42.976.9 1.034-.676 1.034-.676 1.755-1.125-.27-.42-.404-.601-.586-.78-.63-.705-1.469-1.065-2.834-1.034l-.705.089c-.676.165-1.32.525-1.71 1.005-1.14 1.291-.811 3.541.569 4.471 1.365 1.02 3.361 1.244 3.616 2.205.24 1.17-.87 1.545-1.966 1.41-.811-.18-1.26-.586-1.755-1.336l-1.83 1.051c.21.48.45.689.81 1.109 1.74 1.756 6.09 1.666 6.871-1.004.029-.09.24-.705.074-1.65l.046.067zm-8.983-7.245h-2.248c0 1.938-.009 3.864-.009 5.805 0 1.232.063 2.363-.138 2.711-.33.689-1.18.601-1.566.48-.396-.196-.597-.466-.83-.855-.063-.105-.11-.196-.127-.196l-1.825 1.125c.305.63.75 1.172 1.324 1.517.855.51 2.004.675 3.207.405.783-.226 1.458-.691 1.811-1.411.51-.93.402-2.07.397-3.346.012-2.054 0-4.109 0-6.179l.004-.056z"/>
  </symbol>

  <symbol id="icon-nodejs">
    <path d="M11.998,24c-0.321,0-0.641-0.084-0.922-0.247l-2.936-1.737c-0.438-0.245-0.224-0.332-0.08-0.383 c0.585-0.203,0.703-0.25,1.328-0.604c0.065-0.037,0.151-0.023,0.218,0.017l2.256,1.339c0.082,0.045,0.197,0.045,0.272,0l8.795-5.076 c0.082-0.047,0.134-0.141,0.134-0.238V6.921c0-0.099-0.053-0.192-0.137-0.242l-8.791-5.072c-0.081-0.047-0.189-0.047-0.271,0 L3.075,6.68C2.99,6.729,2.936,6.825,2.936,6.921v10.15c0,0.097,0.054,0.189,0.139,0.235l2.409,1.392 c1.307,0.654,2.108-0.116,2.108-0.89V7.787c0-0.142,0.114-0.253,0.256-0.253h1.115c0.139,0,0.255,0.112,0.255,0.253v10.021 c0,1.745-0.95,2.745-2.604,2.745c-0.508,0-0.909,0-2.026-0.551L2.28,18.675c-0.57-0.329-0.922-0.945-0.922-1.604V6.921 c0-0.659,0.353-1.275,0.922-1.603l8.795-5.082c0.557-0.315,1.296-0.315,1.848,0l8.794,5.082c0.57,0.329,0.924,0.944,0.924,1.603 v10.15c0,0.659-0.354,1.273-0.924,1.604l-8.794,5.078C12.643,23.916,12.324,24,11.998,24z M19.099,13.993 c0-1.9-1.284-2.406-3.987-2.763c-2.731-0.361-3.009-0.548-3.009-1.187c0-0.528,0.235-1.233,2.258-1.233 c1.807,0,2.473,0.389,2.747,1.607c0.024,0.115,0.129,0.199,0.247,0.199h1.141c0.071,0,0.138-0.031,0.186-0.081 c0.048-0.054,0.074-0.123,0.067-0.196c-0.177-2.098-1.571-3.076-4.388-3.076c-2.508,0-4.004,1.058-4.004,2.833 c0,1.925,1.488,2.457,3.895,2.695c2.88,0.282,3.103,0.703,3.103,1.269c0,0.983-0.789,1.402-2.642,1.402 c-2.327,0-2.839-0.584-3.011-1.742c-0.02-0.124-0.126-0.215-0.253-0.215h-1.137c-0.141,0-0.254,0.112-0.254,0.253 c0,1.482,0.806,3.248,4.655,3.248C17.501,17.007,19.099,15.91,19.099,13.993z"/>
  </symbol>

  <symbol id="icon-typescript">
    <path d="M1.125 0C.502 0 0 .502 0 1.125v21.75C0 23.498.502 24 1.125 24h21.75c.623 0 1.125-.502 1.125-1.125V1.125C24 .502 23.498 0 22.875 0zm17.363 9.75c.612 0 1.154.037 1.627.111a6.38 6.38 0 0 1 1.306.34v2.458a3.95 3.95 0 0 0-.643-.361 5.093 5.093 0 0 0-.717-.26 5.453 5.453 0 0 0-1.426-.2c-.3 0-.573.028-.819.086a2.1 2.1 0 0 0-.623.242c-.17.104-.3.229-.393.374a.888.888 0 0 0-.14.49c0 .196.053.373.156.529.104.156.252.304.443.444s.423.276.696.41c.273.135.582.274.926.416.47.197.892.407 1.266.628.374.222.695.473.963.753.268.279.472.598.614.957.142.359.214.776.214 1.253 0 .657-.125 1.21-.373 1.656a3.033 3.033 0 0 1-1.012 1.085 4.38 4.38 0 0 1-1.487.596c-.566.12-1.163.18-1.79.18a9.916 9.916 0 0 1-1.84-.164 5.544 5.544 0 0 1-1.512-.493v-2.63a5.033 5.033 0 0 0 3.237 1.2c.333 0 .624-.03.872-.09.249-.06.456-.144.623-.25.166-.108.29-.234.373-.38a1.023 1.023 0 0 0-.074-1.089 2.12 2.12 0 0 0-.537-.5 5.597 5.597 0 0 0-.807-.444 27.72 27.72 0 0 0-1.007-.436c-.918-.383-1.602-.852-2.053-1.405-.45-.553-.676-1.222-.676-2.005 0-.614.123-1.141.369-1.582.246-.441.58-.804 1.004-1.089a4.494 4.494 0 0 1 1.47-.629 7.536 7.536 0 0 1 1.77-.201zm-15.113.188h9.563v2.166H9.506v9.646H6.789v-9.646H3.375z"/>
  </symbol>
  
  <symbol id="icon-react">
    <path d="M14.23 12.004a2.236 2.236 0 0 1-2.235 2.236 2.236 2.236 0 0 1-2.236-2.236 2.236 2.236 0 0 1 2.235-2.236 2.236 2.236 0 0 1 2.236 2.236zm2.648-10.69c-1.346 0-3.107.96-4.888 2.622-1.78-1.653-3.542-2.602-4.887-2.602-.41 0-.783.093-1.106.278-1.375.793-1.683 3.264-.973 6.365C1.98 8.917 0 10.42 0 12.004c0 1.59 1.99 3.097 5.043 4.03-.704 3.113-.39 5.588.988 6.38.32.187.69.275 1.102.275 1.345 0 3.107-.96 4.888-2.624 1.78 1.654 3.542 2.603 4.887 2.603.41 0 .783-.09 1.106-.275 1.374-.792 1.683-3.263.973-6.365C22.02 15.096 24 13.59 24 12.004c0-1.59-1.99-3.097-5.043-4.032.704-3.11.39-5.587-.988-6.38-.318-.184-.688-.277-1.092-.278zm-.005 1.09v.006c.225 0 .406.044.558.127.666.382.955 1.835.73 3.704-.054.46-.142.945-.25 1.44-.96-.236-2.006-.417-3.107-.534-.66-.905-1.345-1.727-2.035-2.447 1.592-1.48 3.087-2.292 4.105-2.295zm-9.77.02c1.012 0 2.514.808 4.11 2.28-.686.72-1.37 1.537-2.02 2.442-1.107.117-2.154.298-3.113.538-.112-.49-.195-.964-.254-1.42-.23-1.868.054-3.32.714-3.707.19-.09.4-.127.563-.132zm4.882 3.05c.455.468.91.992 1.36 1.564-.44-.02-.89-.034-1.345-.034-.46 0-.915.01-1.36.034.44-.572.895-1.096 1.345-1.565zM12 8.1c.74 0 1.477.034 2.202.093.406.582.802 1.203 1.183 1.86.372.64.71 1.29 1.018 1.946-.308.655-.646 1.31-1.013 1.95-.38.66-.773 1.288-1.18 1.87-.728.063-1.466.098-2.21.098-.74 0-1.477-.035-2.202-.093-.406-.582-.802-1.204-1.183-1.86-.372-.64-.71-1.29-1.018-1.946.303-.657.646-1.313 1.013-1.954.38-.66.773-1.286 1.18-1.868.728-.064 1.466-.098 2.21-.098zm-3.635.254c-.24.377-.48.763-.704 1.16-.225.39-.435.782-.635 1.174-.265-.656-.49-1.31-.676-1.947.64-.15 1.315-.283 2.015-.386zm7.26 0c.695.103 1.365.23 2.006.387-.18.632-.405 1.282-.66 1.933-.2-.39-.41-.783-.64-1.174-.225-.392-.465-.774-.705-1.146zm3.063.675c.484.15.944.317 1.375.498 1.732.74 2.852 1.708 2.852 2.476-.005.768-1.125 1.74-2.857 2.475-.42.18-.88.342-1.355.493-.28-.958-.646-1.956-1.1-2.98.45-1.017.81-2.01 1.085-2.964zm-13.395.004c.278.96.645 1.957 1.1 2.98-.45 1.017-.812 2.01-1.086 2.964-.484-.15-.944-.318-1.37-.5-1.732-.737-2.852-1.706-2.852-2.474 0-.768 1.12-1.742 2.852-2.476.42-.18.88-.342 1.356-.494zm11.678 4.28c.265.657.49 1.312.676 1.948-.64.157-1.316.29-2.016.39.24-.375.48-.762.705-1.158.225-.39.435-.788.636-1.18zm-9.945.02c.2.392.41.783.64 1.175.23.39.465.772.705 1.143-.695-.102-1.365-.23-2.006-.386.18-.63.406-1.282.66-1.933zM17.92 16.32c.112.493.2.968.254 1.423.23 1.868-.054 3.32-.714 3.708-.147.09-.338.128-.563.128-1.012 0-2.514-.807-4.11-2.28.686-.72 1.37-1.536 2.02-2.44 1.107-.118 2.154-.3 3.113-.54zm-11.83.01c.96.234 2.006.415 3.107.532.66.905 1.345 1.727 2.035 2.446-1.595 1.483-3.092 2.295-4.11 2.295-.22-.005-.406-.05-.553-.132-.666-.38-.955-1.834-.73-3.703.054-.46.142-.944.25-1.438zm4.56.64c.44.02.89.034 1.345.034.46 0 .915-.01 1.36-.034-.44.572-.895 1.095-1.345 1.565-.455-.47-.91-.993-1.36-1.565z"/>
  </symbol>

  <symbol id="icon-redux">
    <path d="M16.634 16.504c.87-.075 1.543-.84 1.5-1.754-.047-.914-.796-1.648-1.709-1.648h-.061a1.71 1.71 0 00-1.648 1.769c.03.479.226.869.494 1.153-1.048 2.038-2.621 3.536-5.005 4.795-1.603.838-3.296 1.154-4.944.93-1.378-.195-2.456-.81-3.116-1.799-.988-1.499-1.078-3.116-.255-4.734.6-1.17 1.499-2.023 2.099-2.443a9.96 9.96 0 01-.42-1.543C-.868 14.408-.416 18.752.932 20.805c1.004 1.498 3.057 2.456 5.304 2.456.6 0 1.23-.044 1.843-.194 3.897-.749 6.848-3.086 8.541-6.532zm5.348-3.746c-2.32-2.728-5.738-4.226-9.634-4.226h-.51c-.253-.554-.837-.899-1.498-.899h-.045c-.943 0-1.678.81-1.647 1.753.03.898.794 1.648 1.708 1.648h.074a1.69 1.69 0 001.499-1.049h.555c2.309 0 4.495.674 6.488 1.992 1.527 1.005 2.622 2.323 3.237 3.897.538 1.288.509 2.547-.045 3.597-.855 1.647-2.294 2.517-4.196 2.517-1.199 0-2.367-.375-2.967-.644-.36.298-.96.793-1.394 1.093 1.318.598 2.652.943 3.94.943 2.922 0 5.094-1.647 5.919-3.236.898-1.798.824-4.824-1.47-7.416zM6.49 17.042c.03.899.793 1.648 1.708 1.648h.06a1.688 1.688 0 001.648-1.768c0-.9-.779-1.647-1.693-1.647h-.06c-.06 0-.15 0-.226.029-1.243-2.098-1.768-4.347-1.572-6.772.12-1.828.72-3.417 1.797-4.735.9-1.124 2.593-1.68 3.747-1.708 3.236-.061 4.585 3.971 4.689 5.574l1.498.45C17.741 3.197 14.686.62 11.764.62 9.02.62 6.49 2.613 5.47 5.535 4.077 9.43 4.991 13.177 6.7 16.174c-.15.195-.24.539-.21.868z"/>
  </symbol>

  <symbol id="icon-express">
    <path d="M24 18.588a1.529 1.529 0 01-1.895-.72l-3.45-4.771-.5-.667-4.003 5.444a1.466 1.466 0 01-1.802.708l5.158-6.92-4.798-6.251a1.595 1.595 0 011.9.666l3.576 4.83 3.596-4.81a1.435 1.435 0 011.788-.668L21.708 7.9l-2.522 3.283a.666.666 0 000 .994l4.804 6.412zM.002 11.576l.42-2.075c1.154-4.103 5.858-5.81 9.094-3.27 1.895 1.489 2.368 3.597 2.275 5.973H1.116C.943 16.447 4.005 19.009 7.92 17.7a4.078 4.078 0 002.582-2.876c.207-.666.548-.78 1.174-.588a5.417 5.417 0 01-2.589 3.957 6.272 6.272 0 01-7.306-.933 6.575 6.575 0 01-1.64-3.858c0-.235-.08-.455-.134-.666A88.33 88.33 0 010 11.577zm1.127-.286h9.654c-.06-3.076-2.001-5.258-4.59-5.278-2.882-.04-4.944 2.094-5.071 5.264z"/>
  </symbol>

  <symbol id="icon-jest">
    <path d="M22.251 11.82a3.117 3.117 0 0 0-2.328-3.01L22.911 0H8.104L11.1 8.838a3.116 3.116 0 0 0-2.244 2.988c0 1.043.52 1.967 1.313 2.536a8.279 8.279 0 0 1-1.084 1.244 8.14 8.14 0 0 1-2.55 1.647c-.834-.563-1.195-1.556-.869-2.446a3.11 3.11 0 0 0-.91-6.08 3.117 3.117 0 0 0-3.113 3.113c0 .848.347 1.626.903 2.182-.048.097-.097.195-.146.299-.465.959-.993 2.043-1.195 3.259-.403 2.432.257 4.384 1.849 5.489A5.093 5.093 0 0 0 5.999 24c1.827 0 3.682-.917 5.475-1.807 1.279-.632 2.599-1.292 3.898-1.612.48-.118.98-.187 1.508-.264 1.07-.153 2.175-.312 3.168-.89a4.482 4.482 0 0 0 2.182-3.091c.174-.994 0-1.994-.444-2.87.298-.48.465-1.042.465-1.647zm-1.355 0c0 .965-.785 1.75-1.75 1.75a1.753 1.753 0 0 1-1.085-3.126l.007-.007c.056-.042.118-.084.18-.125 0 0 .008 0 .008-.007.028-.014.055-.035.083-.05.007 0 .014-.006.021-.006.028-.014.063-.028.097-.042.035-.014.07-.027.098-.041.007 0 .013-.007.02-.007.028-.007.056-.021.084-.028.007 0 .02-.007.028-.007.034-.007.062-.014.097-.02h.007l.104-.022c.007 0 .02 0 .028-.007.028 0 .055-.007.083-.007h.035c.035 0 .07-.007.111-.007h.09c.028 0 .05 0 .077.007h.014c.055.007.111.014.167.028a1.766 1.766 0 0 1 1.396 1.723zM10.043 1.39h10.93l-2.509 7.4c-.104.02-.208.055-.312.09l-2.64-5.385-2.648 5.35c-.104-.034-.216-.055-.327-.076l-2.494-7.38zm4.968 9.825a3.083 3.083 0 0 0-.938-1.668l1.438-2.904 1.452 2.967c-.43.43-.743.98-.868 1.605H15.01zm-3.481-1.098c.034-.007.062-.014.097-.02h.02c.029-.008.056-.008.084-.015h.028c.028 0 .049-.007.076-.007h.271c.028 0 .049.007.07.007.014 0 .02 0 .035.007.027.007.048.007.076.014.007 0 .014 0 .028.007l.097.02h.007c.028.008.056.015.083.029.007 0 .014.007.028.007.021.007.049.014.07.027.007 0 .014.007.02.007.028.014.056.021.084.035h.007a.374.374 0 0 1 .09.049h.007c.028.014.056.034.084.048.007 0 .007.007.013.007.028.014.05.035.077.049l.007.007c.083.062.16.132.236.201l.007.007a1.747 1.747 0 0 1 .48 1.209 1.752 1.752 0 0 1-3.502 0 1.742 1.742 0 0 1 1.32-1.695zm-6.838-.049c.966 0 1.751.786 1.751 1.751s-.785 1.751-1.75 1.751-1.752-.785-1.752-1.75.786-1.752 1.751-1.752zm16.163 6.025a3.07 3.07 0 0 1-1.508 2.133c-.758.438-1.689.577-2.669.716a17.29 17.29 0 0 0-1.64.291c-1.445.355-2.834 1.05-4.182 1.717-1.724.854-3.35 1.66-4.857 1.66a3.645 3.645 0 0 1-2.154-.688c-1.529-1.056-1.453-3.036-1.272-4.12.167-1.015.632-1.966 1.077-2.877.028-.055.049-.104.077-.16.152.056.312.098.479.126-.264 1.473.486 2.994 1.946 3.745l.264.139.284-.104c1.216-.431 2.342-1.133 3.336-2.071a9.334 9.334 0 0 0 1.445-1.716c.16.027.32.034.48.034a3.117 3.117 0 0 0 3.008-2.327h1.167a3.109 3.109 0 0 0 3.01 2.327c.576 0 1.11-.16 1.57-.43.18.52.236 1.063.139 1.605z"/>
  </symbol>

  <symbol id="icon-tl">
    <path d="M23.447 9.756c.028.05.053.113.078.186-.028-.06-.047-.129-.078-.186.592 2.304-1.95 5.003-5.13 4.239h.001c4.596-3.01 2.332-6.772.19-8.58-1.762-1.49-.721-1.95.021-1.95.237 0 .443.046.519.121l-.005-.004.006.004c-.018-1.433-5.066-1.11-.65 3.494 2.268 2.365-.408 7.596-3.596 3.618a.974.974 0 0 1-.071-.113c.515-.214.937-.795.937-1.753a2.383 2.383 0 0 0-.197-.986c.368-.75.707-1.647.707-2.77 0-2.684-1.742-5.076-4.18-5.076s-4.18 2.392-4.18 5.076c0 1.123.339 2.02.707 2.771a2.374 2.374 0 0 0-.197.988c0 .958.421 1.54.937 1.753a.985.985 0 0 1-.072.113C6.006 14.679 3.33 9.447 5.598 7.083c4.417-4.604-.633-4.926-.651-3.494l.008-.004c.078-.074.28-.12.515-.12.742 0 1.783.46.021 1.95-2.133 1.8-4.383 5.538.139 8.542.018.013.03.027.049.04-3.176.764-5.714-1.928-5.131-4.232l.004-.01c-.001.002-.002.005-.004.006l.001-.003-.003.007c-1.174 1.61-.606 5.779 3.778 6.168.019.003.035.009.054.012-4.36 1-3.048 7.02.021 6.056L4.388 22l.016-.003C2.27 21.652 2.11 19 3.176 18.087c1.172-1.006 2.519-.137 5.302-.932l.03-.004c-.03 2.446 2.352 3.76 1.103 5.16-1.316 1.473-3.112-.1-2.858-1.55l.006-.029-.004.008v-.004l-.004.012C5.65 22.598 7.044 24 8.61 24c.899 0 1.855-.462 2.429-1.567 1.214-2.337-2.385-6.432.96-6.432 3.344 0-.255 4.095.959 6.432.574 1.105 1.53 1.567 2.43 1.567 1.571 0 2.97-1.411 1.85-3.268l.005.021-.006-.017c.276 1.457-1.533 3.057-2.855 1.575-1.244-1.404 1.131-2.718 1.106-5.163 2.806.812 4.157-.072 5.334.94 1.066.911.906 3.564-1.228 3.91h.007c3.07.958 4.377-5.054.018-6.057l.005-.001c4.44-.362 5.009-4.573 3.822-6.184zm-20.238.39C3.072 7.9 5.019 6.073 5.62 5.565c.838-.707 1.165-1.272.998-1.727a.809.809 0 0 0-.656-.512 1.411 1.411 0 0 0-.573.03c.169-.082.365-.13.574-.13.475 0 .866.223.995.569.117.313.12 1.007-1.174 2.133-2.047 1.783-2.213 3.922-1.685 5.33.458 1.223 1.47 2.014 2.58 2.014.177 0 .355-.02.533-.057-.54.46-1.16.61-1.412.656-1.494-1.045-2.512-2.419-2.591-3.727zm5.208 6.873c-1.135.302-2.295.319-3.038.323-.924.006-1.655.01-2.333.593-.617.528-.873 1.594-.609 2.536.091.325.19.656.426.857.178.153.482.37.787.522l-.016-.004c.019.01.033.023.052.033-.993-.212-1.572-1.18-1.642-2.134-.088-1.205.602-2.728 2.832-3.055.354-.052.728-.083 1.101-.114.91-.076 1.85-.155 2.497-.54-.024.38-.046.788-.057.983zm.25-2.684c-.65.998-1.936 1.153-3.07 1.29-.32.038-.613.083-.883.138l-.356-.024c-1.801-.156-3.141-1.006-3.775-2.396a4.068 4.068 0 0 1-.353-2.055s.038-.376.108-.77c-.087 1.095.207 2.138.88 2.997a4.649 4.649 0 0 0 3.636 1.762c1.33 0 2.588-.59 3.545-1.663.33-.37.478-.398.516-.398.128.186.019.708-.247 1.119zm6.372-5.503c0 1.347-1.527 1.347-1.527 0s1.527-1.347 1.527 0zM13.234 3.34c0 .741-1.235.741-1.235 0 0-.74 1.235-.74 1.235 0zm-.258 8.156c0 .749-.06 1.356-.133 1.356s-.126-.605-.125-1.355c0-.75.062-1.356.133-1.356.07 0 .128.606.125 1.355zm-.952-1.614c.056 0 .1.73.1 1.631s-.044 1.631-.1 1.631-.1-.73-.1-1.63c0-.902.045-1.632.1-1.632zm-.193-8.21c0 .511-.849.511-.849 0s.85-.506.85 0zm-.587 4.22c0-.354.587-.351.587 0 0 .354-.587.354-.587 0zm.046 5.622c0 .768-.064 1.39-.137 1.39-.073 0-.132-.622-.131-1.389s.064-1.389.138-1.389c.074 0 .132.62.13 1.388zm0-7.495c0 .51-.849.51-.849 0s.849-.51.849 0zm-1.147-1.234c0 .353-.587.353-.587 0s.587-.353.587 0zm-.08 2.508c0 .255-.425.255-.425 0 0-.256.424-.256.424 0zm-1.1 3.54c0-1.347 1.528-1.347 1.528 0s-1.528 1.347-1.528 0zm5.327 9.088c-.078.74-.273 1.38-.446 1.946-.347 1.138-.622 2.036.242 3.002.363.407.829.622 1.346.622.64 0 1.278-.34 1.664-.889a1.97 1.97 0 0 0 .325-.844c.017.16.026.31.015.417a1.623 1.623 0 0 1-.197.646c-.336.595-1.063.98-1.85.98-.95 0-1.77-.532-2.253-1.459-.481-.927-.132-2.214.177-3.35.302-1.115.564-2.077.104-2.678-.263-.345-.727-.512-1.417-.512-.691 0-1.155.167-1.418.512-.46.6-.198 1.563.104 2.678.309 1.136.658 2.423.177 3.35-.482.927-1.303 1.459-2.252 1.459-.788 0-1.515-.385-1.851-.98a1.623 1.623 0 0 1-.182-1.058c.048.296.142.582.323.84.387.547 1.025.888 1.665.888.518 0 .984-.215 1.348-.622.862-.966.588-1.862.24-2.998-.173-.567-.369-1.21-.445-1.95-.1-.966.119-1.827.6-2.36.399-.441.967-.666 1.69-.666s1.293.224 1.69.665c.48.533.7 1.393.6 2.36zm3.029-4.647c1.11 0 2.122-.79 2.579-2.014.526-1.408.36-3.547-1.69-5.33-1.295-1.127-1.292-1.82-1.175-2.134.13-.345.52-.569.994-.569.193 0 .372.045.532.115l.011.004a1.466 1.466 0 0 0-.533-.018.809.809 0 0 0-.656.512c-.166.455.16 1.02.998 1.728.6.507 2.548 2.334 2.411 4.578-.08 1.308-1.097 2.682-2.591 3.727a3.072 3.072 0 0 1-1.412-.656c.177.038.356.057.532.057zm4.635 6.469c-.07.956-.65 1.922-1.645 2.134.015-.008.028-.018.042-.027.305-.153.608-.368.785-.52.235-.202.335-.533.426-.858.264-.942.008-2.008-.609-2.536-.678-.582-1.409-.587-2.333-.593-.743-.004-1.903-.021-3.04-.323-.01-.196-.03-.602-.054-.983.647.386 1.589.465 2.5.542.373.031.744.062 1.097.113 2.23.327 2.919 1.848 2.83 3.05zm-2.666-3.979c-.271-.056-.565-.1-.886-.14-1.135-.136-2.421-.291-3.07-1.29-.268-.41-.38-.93-.292-1.09a.145.145 0 0 1 .048-.009c.09 0 .238.073.511.379.957 1.073 2.217 1.663 3.546 1.663 1.414 0 2.774-.66 3.637-1.763.672-.858.965-1.9.88-2.994.07.393.107.77.107.77a4.068 4.068 0 0 1-.353 2.054c-.634 1.39-1.974 2.24-3.775 2.396l-.353.024zm-9.69-7.495a.236.236 0 0 1 .11.221.236.236 0 1 1-.47 0 .235.235 0 0 1 .36-.221zm4.295.443a.235.235 0 0 1-.11-.222.235.235 0 1 1 .469 0 .236.236 0 0 1-.359.222z"/>
  </symbol>

  <symbol id="icon-sequelize">
    <path d="M12.0264 0 1.5947 5.9922v12.0156L12.0264 24l10.3789-5.9922V5.9922L12.0264 0zm-.0274 3.4844 7.4297 4.2266v8.5781l-7.4297 4.2266-7.3476-4.1817-.0801-8.623 7.4277-4.2266zm.0489.5898c-.9765.5627-1.9519 1.1274-2.9277 1.6914v.2539l2.6074 1.5234v.4824c.1355-.0781.2616-.1511.4023-.2324l.2559.1504v-.3359c.8844-.5068 1.8073-1.0412 2.5684-1.4805.0035-.1232.0027-.2534.0039-.373-.9703-.5596-1.9403-1.1197-2.9102-1.6797zM8.335 6.1387c-.9705.553-1.9312 1.1228-2.8926 1.6914v3.4023c.965.5553 1.9287 1.1127 2.8926 1.6699l.4023-.2324v-2.916c.8561-.4945 1.7522-1.0126 2.4902-1.4395v-.4843L8.335 6.1387zm7.4433.0879-2.8926 1.6699v.3379l2.6367 1.541v3.0664c.0854.0494.1705.0991.2559.1484l2.8926-1.6699V7.918l-2.8926-1.6914zm-3.6484 2.1445c-.9636.5584-1.9281 1.1151-2.8926 1.6719v3.4238c.965.5553 1.9287 1.1127 2.8926 1.6699l2.8926-1.6719v-3.4023l-2.8926-1.6914zm-6.1973 3.7227c-.1627.0962-.3275.1889-.4902.2852v3.4023c.9643.5571 1.9284 1.1145 2.8926 1.6719l.4023-.2324v-2.918c.1625-.0939.3086-.1787.4727-.2734-.1629-.0945-.3047-.1763-.4727-.2734v-.508l-.4023.2325c-.8251-.4771-1.6902-.976-2.4024-1.3867zm12.2481.0859-2.4023 1.3887c-.088-.0509-.1672-.0972-.2559-.1484v.334l-.4922.2852.4922.2871v3.0664c.0854.0494.1705.0991.2559.1484l2.8926-1.6719v-3.4023l-.4903-.2872zm-8.4688 2.1387c-.1581.0913-.3165.1821-.4746.2734v3.4238c.9637.5575 1.9282 1.1136 2.8926 1.6699l2.8926-1.6699v-3.4023l-.4902-.2871-2.4023 1.3887c-.8307-.4804-1.7013-.9829-2.4181-1.3965z"/>
  </symbol>

  <symbol id="icon-mysql">
    <path d="M16.405 5.501c-.115 0-.193.014-.274.033v.013h.014c.054.104.146.18.214.273.054.107.1.214.154.32l.014-.015c.094-.066.14-.172.14-.333-.04-.047-.046-.094-.08-.14-.04-.067-.126-.1-.18-.153zM5.77 18.695h-.927a50.854 50.854 0 00-.27-4.41h-.008l-1.41 4.41H2.45l-1.4-4.41h-.01a72.892 72.892 0 00-.195 4.41H0c.055-1.966.192-3.81.41-5.53h1.15l1.335 4.064h.008l1.347-4.064h1.095c.242 2.015.384 3.86.428 5.53zm4.017-4.08c-.378 2.045-.876 3.533-1.492 4.46-.482.716-1.01 1.073-1.583 1.073-.153 0-.34-.046-.566-.138v-.494c.11.017.24.026.386.026.268 0 .483-.075.647-.222.197-.18.295-.382.295-.605 0-.155-.077-.47-.23-.944L6.23 14.615h.91l.727 2.36c.164.536.233.91.205 1.123.4-1.064.678-2.227.835-3.483zm12.325 4.08h-2.63v-5.53h.885v4.85h1.745zm-3.32.135l-1.016-.5c.09-.076.177-.158.255-.25.433-.506.648-1.258.648-2.253 0-1.83-.718-2.746-2.155-2.746-.704 0-1.254.232-1.65.697-.43.508-.646 1.256-.646 2.245 0 .972.19 1.686.574 2.14.35.41.877.615 1.583.615.264 0 .506-.033.725-.098l1.325.772.36-.622zM15.5 17.588c-.225-.36-.337-.94-.337-1.736 0-1.393.424-2.09 1.27-2.09.443 0 .77.167.977.5.224.362.336.936.336 1.723 0 1.404-.424 2.108-1.27 2.108-.445 0-.77-.167-.978-.5zm-1.658-.425c0 .47-.172.856-.516 1.156-.344.3-.803.45-1.384.45-.543 0-1.064-.172-1.573-.515l.237-.476c.438.22.833.328 1.19.328.332 0 .593-.073.783-.22a.754.754 0 00.3-.615c0-.33-.23-.61-.648-.845-.388-.213-1.163-.657-1.163-.657-.422-.307-.632-.636-.632-1.177 0-.45.157-.81.47-1.085.315-.278.72-.415 1.22-.415.512 0 .98.136 1.4.41l-.213.476a2.726 2.726 0 00-1.064-.23c-.283 0-.502.068-.654.206a.685.685 0 00-.248.524c0 .328.234.61.666.85.393.215 1.187.67 1.187.67.433.305.648.63.648 1.168zm9.382-5.852c-.535-.014-.95.04-1.297.188-.1.04-.26.04-.274.167.055.053.063.14.11.214.08.134.218.313.346.407.14.11.28.216.427.31.26.16.555.255.81.416.145.094.293.213.44.313.073.05.12.14.214.172v-.02c-.046-.06-.06-.147-.105-.214-.067-.067-.134-.127-.2-.193a3.223 3.223 0 00-.695-.675c-.214-.146-.682-.35-.77-.595l-.013-.014c.146-.013.32-.066.46-.106.227-.06.435-.047.67-.106.106-.027.213-.06.32-.094v-.06c-.12-.12-.21-.283-.334-.395a8.867 8.867 0 00-1.104-.823c-.21-.134-.476-.22-.697-.334-.08-.04-.214-.06-.26-.127-.12-.146-.19-.34-.275-.514a17.69 17.69 0 01-.547-1.163c-.12-.262-.193-.523-.34-.763-.69-1.137-1.437-1.826-2.586-2.5-.247-.14-.543-.2-.856-.274-.167-.008-.334-.02-.5-.027-.11-.047-.216-.174-.31-.235-.38-.24-1.364-.76-1.644-.072-.18.434.267.862.422 1.082.115.153.26.328.34.5.047.116.06.235.107.356.106.294.207.622.347.897.073.14.153.287.247.413.054.073.146.107.167.227-.094.136-.1.334-.154.5-.24.757-.146 1.693.194 2.25.107.166.362.534.703.393.3-.12.234-.5.32-.835.02-.08.007-.133.048-.187v.015c.094.188.188.367.274.555.206.328.566.668.867.895.16.12.287.328.487.402v-.02h-.015c-.043-.058-.1-.086-.154-.133a3.445 3.445 0 01-.35-.4 8.76 8.76 0 01-.747-1.218c-.11-.21-.202-.436-.29-.643-.04-.08-.04-.2-.107-.24-.1.146-.247.273-.32.453-.127.288-.14.642-.188 1.01-.027.007-.014 0-.027.014-.214-.052-.287-.274-.367-.46-.2-.475-.233-1.238-.06-1.785.047-.14.247-.582.167-.716-.042-.127-.174-.2-.247-.303a2.478 2.478 0 01-.24-.427c-.16-.374-.24-.788-.414-1.162-.08-.173-.22-.354-.334-.513-.127-.18-.267-.307-.368-.52-.033-.073-.08-.194-.027-.274.014-.054.042-.075.094-.09.088-.072.335.022.422.062.247.1.455.194.662.334.094.066.195.193.315.226h.14c.214.047.455.014.655.073.355.114.675.28.962.46a5.953 5.953 0 012.085 2.286c.08.154.115.295.188.455.14.33.313.663.455.982.14.315.275.636.476.897.1.14.502.213.682.286.133.06.34.115.46.188.23.14.454.3.67.454.11.076.443.243.463.378z"/>
  </symbol>

  <symbol id="icon-docker">
    <path d="M13.983 11.078h2.119a.186.186 0 00.186-.185V9.006a.186.186 0 00-.186-.186h-2.119a.185.185 0 00-.185.185v1.888c0 .102.083.185.185.185m-2.954-5.43h2.118a.186.186 0 00.186-.186V3.574a.186.186 0 00-.186-.185h-2.118a.185.185 0 00-.185.185v1.888c0 .102.082.185.185.185m0 2.716h2.118a.187.187 0 00.186-.186V6.29a.186.186 0 00-.186-.185h-2.118a.185.185 0 00-.185.185v1.887c0 .102.082.185.185.186m-2.93 0h2.12a.186.186 0 00.184-.186V6.29a.185.185 0 00-.185-.185H8.1a.185.185 0 00-.185.185v1.887c0 .102.083.185.185.186m-2.964 0h2.119a.186.186 0 00.185-.186V6.29a.185.185 0 00-.185-.185H5.136a.186.186 0 00-.186.185v1.887c0 .102.084.185.186.186m5.893 2.715h2.118a.186.186 0 00.186-.185V9.006a.186.186 0 00-.186-.186h-2.118a.185.185 0 00-.185.185v1.888c0 .102.082.185.185.185m-2.93 0h2.12a.185.185 0 00.184-.185V9.006a.185.185 0 00-.184-.186h-2.12a.185.185 0 00-.184.185v1.888c0 .102.083.185.185.185m-2.964 0h2.119a.185.185 0 00.185-.185V9.006a.185.185 0 00-.184-.186h-2.12a.186.186 0 00-.186.186v1.887c0 .102.084.185.186.185m-2.92 0h2.12a.185.185 0 00.184-.185V9.006a.185.185 0 00-.184-.186h-2.12a.185.185 0 00-.184.185v1.888c0 .102.082.185.185.185M23.763 9.89c-.065-.051-.672-.51-1.954-.51-.338.001-.676.03-1.01.087-.248-1.7-1.653-2.53-1.716-2.566l-.344-.199-.226.327c-.284.438-.49.922-.612 1.43-.23.97-.09 1.882.403 2.661-.595.332-1.55.413-1.744.42H.751a.751.751 0 00-.75.748 11.376 11.376 0 00.692 4.062c.545 1.428 1.355 2.48 2.41 3.124 1.18.723 3.1 1.137 5.275 1.137.983.003 1.963-.086 2.93-.266a12.248 12.248 0 003.823-1.389c.98-.567 1.86-1.288 2.61-2.136 1.252-1.418 1.998-2.997 2.553-4.4h.221c1.372 0 2.215-.549 2.68-1.009.309-.293.55-.65.707-1.046l.098-.288Z"/>
  </symbol>

  <symbol id="icon-mongodb">
    <path d="M17.193 9.555c-1.264-5.58-4.252-7.414-4.573-8.115-.28-.394-.53-.954-.735-1.44-.036.495-.055.685-.523 1.184-.723.566-4.438 3.682-4.74 10.02-.282 5.912 4.27 9.435 4.888 9.884l.07.05A73.49 73.49 0 0111.91 24h.481c.114-1.032.284-2.056.51-3.07.417-.296.604-.463.85-.693a11.342 11.342 0 003.639-8.464c.01-.814-.103-1.662-.197-2.218zm-5.336 8.195s0-8.291.275-8.29c.213 0 .49 10.695.49 10.695-.381-.045-.765-1.76-.765-2.405z"/>
  </symbol>
</svg>